<svg width="24" height="24" viewBox="0 0 24 24" fill="none" xmlns="http://www.w3.org/2000/svg">
<path d="M6.5014 17.5014C6.5014 17.2362 6.39605 16.9818 6.20851 16.7943C6.02097 16.6067 5.76662 16.5014 5.5014 16.5014C5.23619 16.5014 4.98183 16.6067 4.7943 16.7943C4.60676 16.9818 4.5014 17.2362 4.5014 17.5014L4.5014 19.5014C4.5014 19.7666 4.60676 20.0209 4.7943 20.2085C4.98183 20.396 5.23619 20.5014 5.5014 20.5014L19.5014 20.5014C19.7666 20.5014 20.021 20.396 20.2085 20.2085C20.396 20.0209 20.5014 19.7666 20.5014 19.5014L20.5014 17.5014C20.5014 17.2362 20.396 16.9818 20.2085 16.7943C20.021 16.6067 19.7666 16.5014 19.5014 16.5014C19.2362 16.5014 18.9818 16.6067 18.7943 16.7943C18.6068 16.9818 18.5014 17.2362 18.5014 17.5014L18.5014 18.5014L6.5014 18.5014L6.5014 17.5014Z" fill="#007A9B"/>
<path d="M13.08 15.3186L17.08 12.4986C17.2956 12.3457 17.4418 12.1136 17.4868 11.8531C17.5318 11.5927 17.4718 11.325 17.32 11.1086C17.2442 11.0004 17.1477 10.9084 17.0362 10.8377C16.9246 10.767 16.8002 10.7192 16.67 10.6968C16.5398 10.6745 16.4065 10.6782 16.2778 10.7077C16.1491 10.7372 16.0275 10.7919 15.92 10.8686L13.5 12.5886L13.5 12.4986L13.5 4.4986C13.5 4.23338 13.3946 3.97903 13.2071 3.79149C13.0196 3.60395 12.7652 3.4986 12.5 3.4986C12.2348 3.4986 11.9804 3.60395 11.7929 3.79149C11.6053 3.97903 11.5 4.23338 11.5 4.4986L11.5 12.4986L9.09999 10.6986C8.99493 10.6198 8.87538 10.5625 8.74817 10.5299C8.62096 10.4973 8.48857 10.4901 8.35857 10.5086C8.22856 10.5272 8.10349 10.5712 7.99049 10.6381C7.8775 10.705 7.77878 10.7935 7.69999 10.8986C7.57017 11.0717 7.49999 11.2822 7.49999 11.4986C7.49999 11.6538 7.53613 11.807 7.60556 11.9458C7.67499 12.0847 7.77579 12.2054 7.89999 12.2986L11.9 15.2986C12.0691 15.4267 12.2746 15.4976 12.4867 15.5012C12.6988 15.5048 12.9066 15.4409 13.08 15.3186Z" fill="#007A9B"/>
</svg>
