<svg width="18" height="17" viewBox="0 0 18 17" fill="none" xmlns="http://www.w3.org/2000/svg">
<path d="M2.49999 9.40019H1.79999C1.62201 9.40019 1.44802 9.34739 1.30004 9.24849C1.15206 9.14959 1.03674 9.00902 0.968666 8.84457C0.900485 8.68012 0.882619 8.49913 0.91733 8.32452C0.952044 8.1499 1.03778 7.98949 1.16369 7.86362C1.1637 7.86361 1.1637 7.86361 1.1637 7.8636L3.69998 5.32733V2.10023C3.69998 1.60313 4.10288 1.20024 4.59998 1.20024H5.39997C5.89708 1.20024 6.29997 1.60313 6.29997 2.10023V2.72736L8.36359 0.664002L2.49999 9.40019ZM2.49999 9.40019V15.6002H1.4C1.12371 15.6002 0.9 15.8239 0.9 16.1002C0.9 16.3764 1.12371 16.6002 1.4 16.6002H16.5999C16.8762 16.6002 17.0999 16.3764 17.0999 16.1002C17.0999 15.8239 16.8762 15.6002 16.5999 15.6002H15.4999V9.40019H16.1999H16.1999C16.3779 9.40014 16.5519 9.34734 16.6999 9.24846C16.8479 9.14957 16.9633 9.00904 17.0315 8.84462L17.0315 8.84457C17.0996 8.6801 17.1174 8.49914 17.0827 8.32455C17.048 8.14996 16.9623 7.98957 16.8365 7.86364L16.8365 7.86362L9.63651 0.663657L9.63645 0.6636C9.46071 0.488142 9.23019 0.400244 8.99995 0.400244C8.76975 0.400244 8.53919 0.488122 8.36366 0.663934L2.49999 9.40019ZM14.4999 8.5002V15.6002H3.49999V8.5002V8.4002H3.39999H2.04142L8.99995 1.44166L15.9585 8.4002H14.5999H14.4999V8.5002ZM4.69998 2.20023H5.29997V3.72733L4.69998 4.32733V2.20023Z" fill="white" stroke="white" stroke-width="0.2"/>
<path d="M5.44644 13.7462L5.37573 13.8169L5.44644 13.8877L6.01212 14.4533L6.08283 14.5241L6.15354 14.4533L12.5534 8.05351L12.6241 7.98279L12.5533 7.91208L11.9877 7.34643L11.917 7.27572L11.8462 7.34643L5.44644 13.7462ZM6.99995 7.20005C6.06262 7.20005 5.29996 7.9624 5.29996 8.90004C5.29996 9.83769 6.06288 10.6 6.99995 10.6C7.93729 10.6 8.69994 9.83768 8.69994 8.90004C8.69994 7.9624 7.93729 7.20005 6.99995 7.20005ZM6.99995 9.60003C6.61386 9.60003 6.29996 9.28589 6.29996 8.90004C6.29996 8.51419 6.61386 8.20004 6.99995 8.20004C7.38604 8.20004 7.69995 8.51419 7.69995 8.90004C7.69995 9.28589 7.38604 9.60003 6.99995 9.60003ZM10.9999 11.2C10.0626 11.2 9.29994 11.9624 9.29994 12.9C9.29994 13.8377 10.0626 14.6 10.9999 14.6C11.9373 14.6 12.6999 13.8377 12.6999 12.9C12.6999 11.9624 11.9373 11.2 10.9999 11.2ZM10.9999 13.6C10.6138 13.6 10.2999 13.2859 10.2999 12.9C10.2999 12.5142 10.6138 12.2 10.9999 12.2C11.386 12.2 11.6999 12.5142 11.6999 12.9C11.6999 13.2859 11.386 13.6 10.9999 13.6Z" fill="white" stroke="white" stroke-width="0.2"/>
</svg>
