<svg width="119" height="47" viewBox="0 0 119 47" fill="none" xmlns="http://www.w3.org/2000/svg">
<path fill-rule="evenodd" clip-rule="evenodd" d="M112.711 28.8353H110.678V18.373H112.711V23.3234L116.066 18.373H118.474L114.982 23.2882L118.813 28.8353H116.338L112.711 23.3584V28.8353ZM105.628 28.8353H103.594V24.4468H100.103V28.8353H98.0698V18.373H100.103V22.6563H103.594V18.373H105.628V28.8353ZM90.9523 25.2543L89.6982 21.4626L88.3765 25.2543H90.9523ZM94.2061 28.8353H92.1046L91.4946 26.9745H87.8003L87.1902 28.8353H85.0889L88.851 18.373H90.4439L94.2061 28.8353ZM79.5644 25.5702C79.5644 24.7276 79.022 24.1307 78.107 24.1307H76.0734V27.0096H78.107C79.022 27.0096 79.5644 26.4128 79.5644 25.5702ZM81.5641 25.5702C81.5641 27.4661 80.31 28.8353 78.2087 28.8353H74.0737V18.373H80.92V20.1987H76.0734V22.3052H78.2087C80.31 22.3052 81.5641 23.6393 81.5641 25.5702Z" fill="#B6B6B6"/>
<path fill-rule="evenodd" clip-rule="evenodd" d="M13.6089 24.4829H24.1495V0.75H13.6089V24.4829ZM16.3541 21.8498H21.4042V3.4182H16.3541V21.8498Z" fill="#B6B6B6"/>
<path fill-rule="evenodd" clip-rule="evenodd" d="M0.1875 27.467H44.3837V29.7842H0.1875V27.467Z" fill="#B6B6B6"/>
<path fill-rule="evenodd" clip-rule="evenodd" d="M0.1875 46.2499H2.89892V43.1254H18.3879V32.3823H0.1875V46.2499ZM2.89892 40.387H15.6765V35.1559H2.89892V40.387Z" fill="#B6B6B6"/>
<path fill-rule="evenodd" clip-rule="evenodd" d="M33.8094 3.41665V24.4814H36.5207V8.64773L41.5369 3.41665V24.4814H44.2822V0.783569H40.4184L36.5207 4.85608V0.783569H32.6908L26.0818 7.66471V24.4814H28.7932V8.64773L33.8094 3.41665Z" fill="#B6B6B6"/>
<path fill-rule="evenodd" clip-rule="evenodd" d="M21.2693 43.1254H31.3355V46.2499H34.1146V43.1254H44.2486V32.3823H21.2693V43.1254ZM34.1485 40.387H41.605V35.1558H34.1485V40.387ZM23.9468 40.387H31.3694V35.1558H23.9468V40.387Z" fill="#B6B6B6"/>
<path fill-rule="evenodd" clip-rule="evenodd" d="M10.7282 24.4829V0.75H6.86438L0.1875 7.63114V24.4829H10.7282ZM2.96671 8.64926L8.01673 3.38308V21.8498H2.96671V8.64926Z" fill="#B6B6B6"/>
</svg>
