<svg width="167" height="41" viewBox="0 0 167 41" fill="none" xmlns="http://www.w3.org/2000/svg">
<path fill-rule="evenodd" clip-rule="evenodd" d="M20.9019 38.955C31.5576 38.955 40.1937 30.6925 40.1937 20.5C40.1937 10.3067 31.5576 2.045 20.9019 2.045C10.2496 2.045 1.61606 10.3067 1.61606 20.5C1.61606 30.6917 10.2496 38.955 20.9019 38.955ZM20.9019 0.5C32.4518 0.5 41.8089 9.455 41.8089 20.5C41.8089 31.545 32.45 40.5 20.9019 40.5C9.35978 40.5 0 31.545 0 20.5C0 9.455 9.35891 0.5 20.9019 0.5ZM20.9019 34.6667C20.2147 34.6667 19.8007 34.2275 19.7755 33.6267C19.625 33.8975 19.431 34.0808 19.1388 34.1367C18.8483 34.1886 18.5482 34.1555 18.2777 34.0417C18.0106 33.9393 17.7931 33.7449 17.668 33.4967C17.5375 33.2433 17.581 32.9825 17.6741 32.6783C17.3505 33.12 16.8043 33.235 16.3233 33.0217C15.664 32.7283 15.4239 32.1958 15.6944 31.5883C16.5086 29.7483 17.3183 27.9417 18.1359 26.1042C18.2099 25.9375 18.2725 25.765 18.3542 25.5992C18.4273 25.4517 18.4734 25.3433 18.5421 25.2542C18.5941 25.1873 18.6595 25.1309 18.7343 25.0883C17.4697 25.2208 16.8617 25.695 16.5268 25.905C16.4381 25.9617 16.4433 25.97 16.1015 25.8683C15.9499 25.8262 15.7871 25.843 15.6483 25.915C15.4934 25.9935 15.3451 26.0835 15.2047 26.1842C14.7516 26.5208 14.2889 26.8458 13.8601 27.2092C13.66 27.3792 13.373 27.6683 13.4121 27.93C13.4434 28.1725 14.0653 28.7342 14.2515 28.9017C14.6924 29.2983 14.0253 30.045 13.1364 29.9742C13.373 29.7375 13.4286 29.5367 13.3982 29.3583C13.3104 29.3575 13.1407 29.3733 12.9807 29.2367C12.7893 29.0725 12.8746 28.5875 12.6972 28.4225C12.384 28.1325 11.3603 28.1058 10.7488 28.0808C10.4914 28.0708 10.2226 28.005 10.2417 27.6242C9.85295 27.6492 9.77206 27.9242 9.77206 28.1725C9.43719 27.9925 9.15103 27.1292 10.3861 26.9333C10.1774 26.7525 9.8312 26.6867 9.6181 26.9167C9.41718 26.6 9.92514 25.9775 10.8393 26.3283C10.8367 26.3258 11.2507 25.8108 12.4867 27.1283C12.6424 27.0167 12.7972 26.9067 12.939 26.7817C13.4173 26.3675 14.6229 25.2458 14.6229 25.2458C14.6229 24.615 14.722 23.3933 15.5979 22.6608C15.971 22.3483 16.3285 22.1825 17.1183 22.0467C17.1183 22.0467 16.7364 21.4775 16.6764 21.2533C15.9876 21.9083 14.6037 22.1042 14.6037 20.9992C13.4756 22.0717 12.4275 21.4933 12.4275 20.82C12.3885 21.1612 12.3076 21.4969 12.1866 21.82C12.0448 22.1817 11.5282 23.5675 10.1948 23.5675C10.1643 24.0492 10.1617 25.6333 8.56827 25.9883C8.49956 26.0033 8.41171 26.0258 8.36822 26.0758C7.72458 26.8375 5.04911 27.6375 4.72207 27.4217C4.92908 27.28 5.25699 27.0925 5.30918 26.1983C5.34223 25.6083 5.41008 22.5467 5.41008 18.2342C5.41008 16.7075 5.58316 11.7625 10.7245 11.0733C11.5047 10.9692 12.2718 11.0233 12.9363 11.4925C13.8409 12.1358 14.2863 13.2175 13.7539 14.4433C13.7365 14.4875 13.7235 14.5308 13.6991 14.57C13.5182 14.8617 13.5922 15.1133 13.8279 15.3367C14.2567 15.7425 14.7568 16.0167 15.3587 16.0833C15.7379 16.125 16.0528 15.9658 16.3042 15.7175C16.8808 15.1525 17.2722 14.4883 17.414 13.7083C17.6819 12.2267 17.2661 11.4833 17.2427 11.4367C16.8243 10.6383 15.9362 10.0533 14.9064 9.97C14.435 9.13167 13.0816 9.46333 13.0816 9.46333C12.7424 9.53333 12.6232 9.625 12.5389 9.78417C12.5389 9.78417 11.9448 8.92417 12.5041 8.57917C13.0651 8.23333 14.3167 8.09083 14.3167 8.09083C14.3167 7.53083 15.2909 7.095 17.0504 7.39417C19.1788 7.75583 19.6363 6.96417 19.6363 6.96417C19.7259 7.9325 18.9466 8.4325 18.6969 8.5675C19.505 9.40083 20.6331 11.0658 20.9019 13.4283C21.1715 11.0658 22.2996 9.40083 23.1068 8.5675C22.8571 8.4325 22.0787 7.9325 22.1674 6.96417C22.1674 6.96417 22.6249 7.75583 24.7533 7.39417C26.5137 7.095 27.4879 7.53083 27.4879 8.09083C27.4879 8.09083 28.7395 8.2325 29.2996 8.57917C29.8598 8.92417 29.2649 9.78417 29.2649 9.78417C29.1805 9.625 29.0613 9.53417 28.7221 9.46333C28.7221 9.46333 27.3687 9.13167 26.8973 9.97C25.8675 10.0533 24.9803 10.6383 24.5619 11.4367C24.5384 11.4833 24.147 12.22 24.3897 13.7083C24.5176 14.49 24.9229 15.1525 25.5004 15.7175C25.7518 15.9658 26.0658 16.1242 26.4459 16.0833C27.0469 16.0167 27.5479 15.7417 27.9767 15.3367C28.2115 15.1133 28.2855 14.8617 28.1054 14.57C28.0802 14.5308 28.0672 14.4875 28.0506 14.4433C27.5175 13.2183 27.9637 12.135 28.8682 11.4933C29.5319 11.0242 30.2999 10.9683 31.0792 11.0733C36.2214 11.7625 36.3936 16.7075 36.3936 18.2342C36.3936 22.5467 36.4623 25.6083 36.4945 26.1983C36.5467 27.0925 36.8746 27.28 37.0825 27.4217C36.7546 27.6383 34.0791 26.8375 33.4355 26.0758C33.392 26.0258 33.305 26.0033 33.2363 25.9883C31.6429 25.6333 31.6402 24.0492 31.6098 23.5675C30.2764 23.5675 29.7589 22.1817 29.6171 21.82C29.4961 21.4969 29.4152 21.1612 29.3762 20.82C29.3762 21.4933 28.329 22.0717 27.2009 20.9992C27.2009 22.1042 25.8162 21.9083 25.1281 21.2533C25.0673 21.4775 24.6846 22.0467 24.6846 22.0467C25.4761 22.1825 25.8327 22.3483 26.2067 22.6608C27.0817 23.3942 27.1808 24.615 27.1808 25.2458C27.1808 25.2458 28.3872 26.3675 28.8656 26.7817C29.0065 26.9067 29.1614 27.0167 29.3179 27.1283C30.553 25.8108 30.967 26.3258 30.9644 26.3283C31.8786 25.9775 32.3865 26.6008 32.1865 26.9158C31.9734 26.6867 31.6263 26.7525 31.4176 26.9325C32.6527 27.1292 32.3665 27.9925 32.0325 28.1725C32.0325 27.9242 31.9508 27.6492 31.5628 27.6242C31.582 28.005 31.3123 28.0708 31.0549 28.0808C30.4434 28.1058 29.4197 28.1325 29.1066 28.4225C28.9291 28.5875 29.0152 29.0725 28.823 29.2367C28.6638 29.3733 28.4942 29.3575 28.4055 29.3583C28.3759 29.5367 28.4316 29.7375 28.6682 29.975C27.7784 30.045 27.1113 29.2983 27.5531 28.9017C27.7375 28.735 28.3603 28.1725 28.3916 27.93C28.4316 27.6683 28.1437 27.3792 27.9436 27.2092C27.5148 26.8458 27.053 26.5208 26.599 26.1842C26.4586 26.0835 26.3103 25.9935 26.1554 25.915C26.0168 25.8432 25.8544 25.8264 25.7031 25.8683C25.3613 25.97 25.3665 25.9617 25.2769 25.9058C24.942 25.695 24.3349 25.2208 23.0694 25.0892C23.1555 25.1392 23.2137 25.1925 23.2616 25.2542C23.3312 25.3433 23.3773 25.4517 23.4495 25.5992C23.5312 25.7658 23.5947 25.9375 23.6686 26.1042C24.4862 27.9417 25.2951 29.7483 26.1093 31.5875C26.3806 32.1958 26.1397 32.7292 25.4813 33.0208C24.9994 33.235 24.4532 33.1208 24.1305 32.6792C24.2236 32.9825 24.2671 33.2433 24.1357 33.4967C24.011 33.7449 23.7938 33.9393 23.5269 34.0417C23.2563 34.1555 22.9563 34.1886 22.6658 34.1367C22.3727 34.0808 22.1787 33.8975 22.0282 33.6267C22.003 34.2275 21.589 34.6667 20.9019 34.6667ZM54.2808 25.71C54.8647 25.7333 55.449 25.7466 56.0334 25.75C58.4706 25.75 59.8883 24.6617 59.8883 22.6292C59.8883 20.4375 58.2009 19.7267 54.2808 19.7267V25.71ZM56.243 12.6775C57.3946 12.6775 59.7448 12.5792 61.0869 12.5C61.0524 12.7356 61.032 12.973 61.026 13.2108C61.026 13.3492 61.0695 13.6658 61.0869 13.8825C59.8883 13.7242 57.9087 13.6075 57.2929 13.6075C56.8615 13.6075 55.188 13.645 54.2808 13.7242V18.6817H55.3315C57.4799 18.6817 62.001 19.0758 62.001 22.6483C62.001 25.55 59.4613 26.8733 56.1204 26.855C55.7464 26.855 54.346 26.7967 53.4528 26.7967C53.064 26.7967 52.5891 26.815 52.2577 26.855C52.3838 24.6825 52.4229 21.68 52.4229 19.1925C52.4229 16.9625 52.4055 13.5867 52.2577 12.5008C53.5798 12.56 55.7629 12.6775 56.243 12.6775ZM69.8944 21.7608L68.5297 21.9567C67.0441 22.175 65.3915 22.6675 65.3915 24.1708C65.3915 25.3142 66.0542 25.9275 67.3928 25.9275C68.2209 25.9275 69.0454 25.65 69.8944 24.8025V21.7608ZM64.3408 18.0292C65.1471 17.0825 66.63 16.6692 67.8721 16.6692C70.0379 16.6692 71.5426 17.6933 71.5426 20.1608V25.0575C71.5426 26.065 71.7687 26.3008 72.201 26.3008C72.3489 26.3008 72.575 26.2608 72.6977 26.2208L72.8203 26.6958C72.3393 26.9287 71.8108 27.0573 71.2721 27.0725C70.5919 27.0725 70.1605 26.7758 69.9944 26.2025L69.8726 25.7708C68.7567 26.6192 67.5398 27.0725 66.5291 27.0725C64.6504 27.0725 63.4301 26.1233 63.4301 24.465C63.4301 22.6883 64.8157 21.8583 66.7127 21.5242L68.8141 21.1492C69.5203 21.03 69.8944 20.8325 69.8944 20.34C69.8944 18.1867 68.9437 17.635 67.3755 17.635C66.1577 17.635 65.2471 17.97 64.5895 19.255H64.3408V18.0292ZM75.6497 16.9233C75.8759 16.9233 76.3082 16.8842 76.6169 16.865C76.4517 18.3633 76.4308 20.8508 76.4308 20.9508C77.298 20.9908 78.5531 21.03 79.2193 21.03C79.8995 21.03 81.1998 20.9908 81.8183 20.9508C81.8183 20.8317 81.7965 18.3458 81.6356 16.865C81.9809 16.8842 82.4376 16.9233 82.682 16.9233C82.9125 16.9233 83.3447 16.8842 83.6544 16.865C83.4891 18.3458 83.4665 20.8317 83.4665 21.8583C83.4665 22.6883 83.4883 25.3533 83.6544 26.855C83.3391 26.8159 83.0216 26.7964 82.7037 26.7967C82.3549 26.7967 81.9409 26.8158 81.6347 26.855C81.7965 25.3533 81.8183 22.6883 81.8183 22.0583C80.9119 21.9958 79.6734 21.9183 79.1985 21.9183C78.6366 21.9183 77.2588 21.9567 76.4308 22.0167C76.4308 22.6883 76.4525 25.3533 76.6169 26.855C76.302 26.816 75.9847 26.7965 75.6671 26.7967C75.3183 26.7967 74.9043 26.8158 74.5947 26.855C74.7565 25.3533 74.7782 22.6883 74.7782 21.8583C74.7782 20.8508 74.7565 18.3458 74.5947 16.865C74.9435 16.8842 75.401 16.9233 75.6497 16.9233ZM87.5119 16.9233C87.7354 16.9233 88.1712 16.8842 88.4765 16.865C88.3147 18.3458 88.2973 20.8508 88.2973 21.2092H88.6278C89.3089 21.2092 92.7958 17.4158 93.1272 16.865C93.4143 16.8842 93.8866 16.9233 94.1353 16.9233C94.3441 16.9233 94.8398 16.8842 95.146 16.865L90.2152 21.09C90.838 21.8 94.1127 25.3342 95.5992 26.855C95.1889 26.8219 94.7775 26.8024 94.3658 26.7967C93.9909 26.7967 93.4325 26.8158 93.0002 26.855C92.2383 25.71 89.9055 23.0842 88.6278 21.74H88.2973C88.2973 22.4708 88.3147 25.3533 88.4765 26.855C88.1627 26.8158 87.8466 26.7963 87.5302 26.7967C87.1849 26.7967 86.7708 26.8158 86.4577 26.855C86.6273 25.3533 86.6491 22.6883 86.6491 21.8583C86.6491 20.8508 86.6273 18.3458 86.4577 16.865C86.8108 16.8842 87.264 16.9233 87.5119 16.9233ZM105.521 19.2925C108.411 19.2925 110.106 18.1875 110.106 16.0933C110.106 14.1392 108.494 13.6075 106.492 13.6075C106.144 13.6075 104.945 13.6258 104.654 13.6658V19.2117C104.906 19.255 105.316 19.2925 105.521 19.2925ZM104.718 12.5608C105.438 12.5608 106.371 12.5 106.903 12.5C110.721 12.5 112.209 13.6075 112.209 16.0933C112.209 19.3133 109.379 20.3392 106.021 20.3392C105.564 20.327 105.108 20.3006 104.654 20.26V23.675C104.654 24.6617 104.697 25.8667 104.823 26.855C104.095 26.7781 103.36 26.7781 102.631 26.855C102.757 24.6817 102.8 21.6808 102.8 19.1933C102.8 16.9633 102.778 13.5867 102.631 12.5C103.314 12.5192 104.243 12.5608 104.718 12.5608ZM114.473 22.0167C114.473 24.2475 115.444 26.3 117.63 26.3C119.735 26.3 120.994 24.365 120.994 21.72C120.994 19.5883 120.127 17.4367 117.795 17.4367C115.567 17.4367 114.473 19.6675 114.473 22.0167ZM122.957 21.8C122.957 24.8208 120.908 27.0717 117.673 27.0717C114.494 27.0717 112.511 24.8417 112.511 22.0767C112.511 18.8 114.7 16.6683 117.856 16.6683C120.994 16.6683 122.957 18.8392 122.957 21.8ZM133.07 19.0158H132.822C132.098 17.8908 131.091 17.4367 129.953 17.4367C127.538 17.4367 126.383 19.6683 126.383 21.8392C126.383 24.3467 127.827 26.3008 130.385 26.3008C131.234 26.3008 131.997 26.1842 133.192 24.9383L133.379 25.1558L133.131 26.1233C132.137 26.7567 131.029 27.0725 129.748 27.0725C126.526 27.0725 124.421 24.92 124.421 21.8792C124.421 18.7 126.691 16.6692 130.014 16.6692C131.091 16.6692 132.264 16.865 133.585 17.5367L133.07 19.0158ZM143.486 19.0158H143.241C142.522 17.8908 141.51 17.4367 140.377 17.4367C137.958 17.4367 136.802 19.6683 136.802 21.8392C136.802 24.3467 138.254 26.3008 140.808 26.3008C141.65 26.3008 142.417 26.1842 143.612 24.9383L143.795 25.1558L143.551 26.1233C142.561 26.7567 141.446 27.0725 140.168 27.0725C136.95 27.0725 134.845 24.92 134.845 21.8792C134.845 18.7 137.115 16.6692 140.438 16.6692C141.51 16.6692 142.687 16.865 144.008 17.5367L143.486 19.0158ZM146.545 26.7967C146.419 26.7967 146.049 26.8342 145.883 26.855C146.049 25.3533 146.07 22.6883 146.07 21.8583C146.07 20.85 146.049 18.3458 145.883 16.865C146.236 16.8842 146.685 16.9233 146.934 16.9233C147.16 16.9233 147.592 16.8842 147.906 16.865C147.741 18.3458 147.723 20.8317 147.723 21.8583C147.723 22.6883 147.74 23.8517 147.762 24.405C148.895 23.0842 152.942 18.1683 153.913 16.865C154.136 16.9025 154.28 16.9233 154.528 16.9233C154.65 16.9233 155.082 16.8842 155.317 16.865C155.147 18.3458 155.126 20.8317 155.126 21.8583C155.126 22.6883 155.147 25.3533 155.317 26.8542C155.002 26.8154 154.684 26.796 154.366 26.7958C154.013 26.7958 153.604 26.815 153.29 26.8542C153.456 25.3542 153.477 22.6875 153.477 21.8583C153.478 20.9565 153.465 20.0548 153.437 19.1533C152.03 20.5167 148.316 25.1758 147.143 26.8542C146.946 26.8136 146.746 26.7948 146.545 26.7967ZM158.233 26.7967C158.012 26.8076 157.792 26.827 157.573 26.855C157.735 25.3533 157.757 22.6883 157.757 21.8583C157.757 20.85 157.735 18.3458 157.574 16.865C157.922 16.8842 158.373 16.9233 158.62 16.9233C158.847 16.9233 159.283 16.8842 159.593 16.865C159.428 18.3458 159.408 20.8317 159.408 21.8583C159.408 22.6883 159.427 23.8517 159.449 24.405C160.583 23.0842 164.624 18.1683 165.596 16.865C165.822 16.9025 165.967 16.9233 166.215 16.9233C166.337 16.9233 166.773 16.8842 167 16.865C166.837 18.3458 166.816 20.8317 166.816 21.8583C166.816 22.6883 166.837 25.3533 167 26.8542C166.685 26.8152 166.367 26.7957 166.049 26.7958C165.701 26.7958 165.287 26.815 164.98 26.8542C165.146 25.3542 165.164 22.6875 165.164 21.8583C165.164 20.8325 165.146 19.57 165.125 19.1533C163.721 20.5167 160.003 25.1758 158.826 26.8542C158.631 26.8134 158.432 26.7947 158.233 26.7967Z" fill="#127EBE"/>
</svg>
