<svg width="217" height="35" viewBox="0 0 217 35" fill="none" xmlns="http://www.w3.org/2000/svg">
<path d="M97.0925 10.6582L101.603 7.22888H86.502V27.7713H101.603V24.3419H90.8167V19.097H100.034V15.6677H90.8167V10.6582H97.0925Z" fill="#B6B6B6"/>
<path d="M75.0941 15.2306H69.8643V10.6582H78.2321L82.7429 7.22888H65.5496V27.7713H74.5384C79.5723 27.7713 82.4813 25.4178 82.4813 21.316C82.4813 17.3823 79.8664 15.2306 75.0941 15.2306ZM74.375 24.3419H69.8643V18.66H74.375C77.1208 18.66 78.3956 19.6013 78.3956 21.5177C78.3956 23.4342 77.0227 24.3419 74.375 24.3419Z" fill="#B6B6B6"/>
<path d="M113.828 7.22888H105.624V27.7713H109.939V21.9547H113.861C119.091 21.9547 122.36 19.1306 122.36 14.5918C122.36 10.053 119.091 7.22888 113.828 7.22888ZM113.73 18.5255H109.906V10.6582H113.73C116.509 10.6582 118.012 12.0703 118.012 14.5918C118.012 17.1134 116.509 18.5255 113.73 18.5255Z" fill="#B6B6B6"/>
<path d="M58.1626 23.3332C57.0186 23.972 55.7439 24.3083 54.4363 24.3083C50.5466 24.3083 47.7354 21.4505 47.7354 17.5169C47.7354 13.5833 50.5466 10.7255 54.4363 10.7255C55.8418 10.6919 57.2147 11.1626 58.3588 12.0031L61.464 9.64962L61.2678 9.44789C59.4701 7.80047 57.0512 6.95996 54.3056 6.95996C51.331 6.95996 48.618 8.0022 46.6569 9.88497C44.6955 11.835 43.5842 14.5583 43.6497 17.3824C43.6169 20.2402 44.6955 22.9972 46.6569 25.0142C48.7161 26.998 51.4617 28.1074 54.2728 28.0402C57.3781 28.0402 60.0911 26.9307 61.9216 24.9134L59.1432 22.7954L58.1626 23.3332Z" fill="#B6B6B6"/>
<path d="M174.233 7.26251V27.8047H178.548V19.3996H187.733V27.8047H192.048V7.26251H187.733V15.7013H178.548V7.26251H174.233ZM166.814 27.8047H171.357L162.924 7.26251H158.544L149.947 27.8047H154.295L156.027 23.6694H165.179L166.814 27.8047ZM157.335 20.2401L160.669 12.003L163.806 20.2401H157.335ZM201.723 19.5005H204.404L211.006 27.7713H216.563L207.738 17.147L215.451 7.22888H210.516L204.109 16.0375H201.723V7.22888H197.409V27.7713H201.723V19.5005ZM135.696 15.2642V10.6918H146.973V7.26251H131.381V27.8047H140.37C145.404 27.8047 148.313 25.4514 148.313 21.3496C148.313 17.416 145.698 15.2642 140.926 15.2642H135.696ZM135.696 24.3756V18.6936H140.207C142.952 18.6936 144.227 19.6349 144.227 21.5513C144.227 23.4678 142.887 24.409 140.207 24.409H135.696V24.3756Z" fill="#B6B6B6"/>
<path d="M30.1498 7.09436C30.9343 8.13662 31.588 9.27973 32.1437 10.4901L17.0424 21.9547L10.7012 17.853V12.9444L17.0097 17.0125L30.1498 7.09436Z" fill="#B6B6B6"/>
<path d="M4.26186 17.5169C4.26186 17.2815 4.26186 17.0798 4.29455 16.8444L0.470187 16.6427C0.470187 16.9117 0.4375 17.2143 0.4375 17.4832C0.4375 22.1902 2.30065 26.46 5.30783 29.5531L8.02084 26.7625C5.70008 24.409 4.26186 21.1479 4.26186 17.5169Z" fill="#B6B6B6"/>
<path d="M17.0098 4.40483C17.2386 4.40483 17.4347 4.40482 17.6635 4.43845L17.8596 0.504812C17.5981 0.504812 17.3039 0.471191 17.0424 0.471191C12.4663 0.471191 8.31505 2.38758 5.30786 5.48069L8.02087 8.27122C10.3089 5.88414 13.5123 4.40483 17.0098 4.40483Z" fill="#B6B6B6"/>
<path d="M17.0098 30.629C16.781 30.629 16.5848 30.629 16.356 30.5953L16.1599 34.5291C16.4214 34.5291 16.7156 34.5625 16.9771 34.5625C21.5532 34.5625 25.7044 32.6463 28.7116 29.5531L25.9985 26.7626C23.7105 29.1832 20.5399 30.629 17.0098 30.629Z" fill="#B6B6B6"/>
<path d="M24.2009 6.69098L27.4368 4.23665C24.5931 1.88319 20.9649 0.4375 17.0098 0.4375V4.37113C19.6901 4.40475 22.1744 5.24527 24.2009 6.69098Z" fill="#B6B6B6"/>
<path d="M33.6147 17.5168C33.6147 16.4745 33.5166 15.4659 33.3532 14.4573L29.7903 17.1806C29.7903 17.2814 29.7903 17.4159 29.7903 17.5168C29.7903 21.3832 28.1559 24.8462 25.5737 27.2332L28.1559 30.1582C31.4899 27.065 33.6147 22.5264 33.6147 17.5168Z" fill="#B6B6B6"/>
<path d="M17.0097 30.629C13.2508 30.629 9.88401 28.948 7.56325 26.2919L4.71948 28.948C7.75936 32.4108 12.1394 34.5625 17.0097 34.5625V30.629Z" fill="#B6B6B6"/>
<path d="M8.47847 7.80052L5.89621 4.87549C2.52946 8.00222 0.4375 12.5074 0.4375 17.5169H4.26186C4.26186 13.6841 5.89621 10.1876 8.47847 7.80052Z" fill="#B6B6B6"/>
</svg>
