<?xml version="1.0" encoding="utf-8"?>
<!-- Generator: Adobe Illustrator 26.0.2, SVG Export Plug-In . SVG Version: 6.00 Build 0)  -->
<svg version="1.1" xmlns="http://www.w3.org/2000/svg" xmlns:xlink="http://www.w3.org/1999/xlink" x="0px" y="0px"
	 viewBox="0 0 142 142" style="enable-background:new 0 0 142 142;" xml:space="preserve">
<style type="text/css">
	.st0{fill:#D6DBE5;}
	.st1{fill:#314A7E;}
	.st2{fill:#F1F2F2;}
	.st3{fill:#E5DCEB;}
	.st4{fill:#7B519D;}
	.st5{fill:#FAD5D4;}
	.st6{fill:#E52D27;}
	.st7{fill-rule:evenodd;clip-rule:evenodd;fill:#F1F2F2;}
	.st8{fill:#D6F2D7;}
	.st9{fill:#30BF39;}
	.st10{fill:#D9EFFC;}
	.st11{fill:#40B0EF;}
	.st12{fill:#FEFEFE;}
	.st13{fill:#D9DFED;}
	.st14{fill:#4060A5;}
	.st15{fill:#FFFFFF;}
</style>
<g id="background">
</g>
<g id="objects">
	<g>
		<path class="st0" d="M6,71C6,35.1,35.1,6,71,6c35.9,0,65,29.1,65,65s-29.1,65-65,65C35.1,136,6,106.9,6,71z"/>
		<ellipse transform="matrix(0.7907 -0.6122 0.6122 0.7907 -28.6058 58.3246)" class="st1" cx="71" cy="71" rx="53.52" ry="53.52"/>
		<path class="st2" d="M84.56,71.02h-8.87v31.63H62.54V71.02h-6.25V59.85h6.25v-7.23c0-5.17,2.46-13.27,13.27-13.27l9.74,0.04v10.85
			h-7.07c-1.16,0-2.79,0.58-2.79,3.05v6.58h10.02L84.56,71.02z M84.56,71.02"/>
	</g>
</g>
</svg>
