<?xml version="1.0" encoding="utf-8"?>
<!-- Generator: Adobe Illustrator 26.0.2, SVG Export Plug-In . SVG Version: 6.00 Build 0)  -->
<svg version="1.1" xmlns="http://www.w3.org/2000/svg" xmlns:xlink="http://www.w3.org/1999/xlink" x="0px" y="0px"
	 viewBox="0 0 142 142" style="enable-background:new 0 0 142 142;" xml:space="preserve">
<style type="text/css">
	.st0{fill:#D6DBE5;}
	.st1{fill:#314A7E;}
	.st2{fill:#F1F2F2;}
	.st3{fill:#E5DCEB;}
	.st4{fill:#7B519D;}
	.st5{fill:#FAD5D4;}
	.st6{fill:#E52D27;}
	.st7{fill-rule:evenodd;clip-rule:evenodd;fill:#F1F2F2;}
	.st8{fill:#D6F2D7;}
	.st9{fill:#30BF39;}
	.st10{fill:#D9EFFC;}
	.st11{fill:#40B0EF;}
	.st12{fill:#FEFEFE;}
	.st13{fill:#D9DFED;}
	.st14{fill:#4060A5;}
	.st15{fill:#FFFFFF;}
</style>
<g id="background">
</g>
<g id="objects">
	<g>
		<path class="st13" d="M6,71C6,35.1,35.1,6,71,6c35.9,0,65,29.1,65,65c0,35.9-29.1,65-65,65C35.1,136,6,106.9,6,71z"/>
		<circle class="st14" cx="71" cy="71" r="53.52"/>
		<g id="_x33_4hbmL.tif">
			<g>
				<path class="st15" d="M71.06,38.25c4.39,0.08,8.79,0.12,13.18,0.24c3.81,0.11,7.51,0.79,10.82,2.81c4.34,2.65,7,6.56,7.86,11.53
					c0.51,2.97,0.69,6.03,0.74,9.05c0.1,6.5,0.06,13-0.01,19.5c-0.04,3.41-0.15,6.83-1.28,10.11c-2.19,6.36-6.66,10.22-13.2,11.47
					c-2.96,0.56-6.02,0.69-9.05,0.74c-6.47,0.1-12.95,0.06-19.42-0.01c-3.41-0.04-6.83-0.15-10.12-1.27
					c-6.37-2.18-10.24-6.64-11.5-13.18c-0.57-2.95-0.69-6.02-0.74-9.05c-0.1-6.5-0.06-13,0.01-19.5c0.04-3.41,0.15-6.83,1.28-10.11
					c2.19-6.36,6.66-10.22,13.2-11.47c2.96-0.56,6.02-0.63,9.05-0.74c3.05-0.12,6.12-0.03,9.17-0.03
					C71.06,38.31,71.06,38.28,71.06,38.25z M97.93,70.51c-0.04,0-0.09,0-0.13,0c0-2.58,0.05-5.16-0.02-7.74
					c-0.07-2.48-0.16-4.97-0.41-7.43c-0.56-5.53-3.85-9.34-9.3-10.38c-2.86-0.54-5.84-0.63-8.76-0.68c-5.54-0.1-11.09-0.09-16.63,0
					c-2.76,0.04-5.55,0.15-8.28,0.57c-4.73,0.74-7.96,3.44-9.27,8.14c-0.42,1.5-0.66,3.1-0.7,4.66c-0.14,5.92-0.23,11.85-0.21,17.77
					c0.01,3.77,0.1,7.55,0.43,11.3c0.49,5.63,3.92,9.46,9.46,10.47c2.85,0.52,5.79,0.58,8.7,0.63c5.47,0.09,10.94,0.07,16.42,0.01
					c2.5-0.03,5.01-0.17,7.51-0.41c2.33-0.23,4.51-0.99,6.39-2.48c3.04-2.41,4.21-5.74,4.39-9.44
					C97.75,80.49,97.79,75.5,97.93,70.51z"/>
				<path class="st15" d="M87.8,71.05c0,9.32-7.48,16.78-16.82,16.78c-9.38,0-16.79-7.49-16.78-16.96c0-9.23,7.56-16.64,16.96-16.64
					C80.34,54.24,87.8,61.77,87.8,71.05z M70.99,81.93c5.98,0.01,10.9-4.91,10.91-10.89c0.01-5.98-4.92-10.91-10.89-10.91
					c-5.99,0-10.9,4.91-10.91,10.89C60.1,77,65.01,81.93,70.99,81.93z"/>
				<path class="st15" d="M92.39,53.55c0,2.2-1.76,3.99-3.93,3.97c-2.17-0.01-3.97-1.82-3.95-3.98c0.02-2.16,1.76-3.89,3.92-3.9
					C90.67,49.63,92.38,51.33,92.39,53.55z"/>
			</g>
		</g>
	</g>
</g>
</svg>
