<?xml version="1.0" encoding="utf-8"?>
<!-- Generator: Adobe Illustrator 26.0.2, SVG Export Plug-In . SVG Version: 6.00 Build 0)  -->
<svg version="1.1" xmlns="http://www.w3.org/2000/svg" xmlns:xlink="http://www.w3.org/1999/xlink" x="0px" y="0px"
	 viewBox="0 0 142 142" style="enable-background:new 0 0 142 142;" xml:space="preserve">
<style type="text/css">
	.st0{fill:#D6DBE5;}
	.st1{fill:#314A7E;}
	.st2{fill:#F1F2F2;}
	.st3{fill:#E5DCEB;}
	.st4{fill:#7B519D;}
	.st5{fill:#FAD5D4;}
	.st6{fill:#E52D27;}
	.st7{fill-rule:evenodd;clip-rule:evenodd;fill:#F1F2F2;}
	.st8{fill:#D6F2D7;}
	.st9{fill:#30BF39;}
	.st10{fill:#D9EFFC;}
	.st11{fill:#40B0EF;}
	.st12{fill:#FEFEFE;}
	.st13{fill:#D9DFED;}
	.st14{fill:#4060A5;}
	.st15{fill:#FFFFFF;}
</style>
<g id="background">
</g>
<g id="objects">
	<g>
		<path class="st10" d="M8,71C8,36.21,36.21,8,71,8c34.79,0,63,28.21,63,63s-28.21,63-63,63C36.21,134,8,105.79,8,71z"/>
		<path class="st11" d="M19.13,71c0-28.65,23.22-51.87,51.87-51.87c28.65,0,51.87,23.22,51.87,51.87
			c0,28.65-23.23,51.87-51.87,51.87C42.35,122.87,19.13,99.65,19.13,71z"/>
		<g id="Het1PX.tif">
			<g>
				<path class="st12" d="M98.71,50.69c-0.11,1.36-0.51,2.79-0.82,4.25c-2.54,12.03-5.09,24.05-7.65,36.08
					c-0.15,0.69-0.3,1.38-0.68,2c-0.61,1.02-1.49,1.39-2.65,1.13c-0.73-0.17-1.36-0.51-1.96-0.95c-3.85-2.86-7.71-5.69-11.55-8.56
					c-0.49-0.37-0.77-0.32-1.18,0.08c-1.89,1.88-3.82,3.72-5.72,5.6c-0.72,0.72-1.53,1.14-2.58,1.11c-0.74-0.03-1.17-0.33-1.4-1.04
					c-1.19-3.71-2.39-7.41-3.6-11.11c-0.41-1.26-0.84-2.51-1.22-3.77c-0.14-0.46-0.37-0.69-0.83-0.83
					c-3.77-1.16-7.52-2.34-11.29-3.52c-0.5-0.16-0.99-0.31-1.44-0.59c-1.07-0.68-1.16-1.58-0.23-2.43c0.64-0.58,1.42-0.93,2.21-1.24
					c5.13-1.98,10.26-3.96,15.39-5.94c11.08-4.27,22.15-8.54,33.23-12.81c0.09-0.03,0.17-0.07,0.26-0.11
					C97.11,47.25,98.69,48.34,98.71,50.69z M63.96,87.88c0.2-0.1,0.18-0.23,0.19-0.34c0.25-2.7,0.51-5.4,0.74-8.11
					c0.05-0.67,0.26-1.17,0.79-1.64c7.22-6.48,14.42-12.99,21.62-19.49c0.46-0.41,0.92-0.82,1.36-1.24
					c0.18-0.17,0.42-0.37,0.28-0.66c-0.15-0.3-0.47-0.29-0.75-0.26c-0.55,0.06-1.02,0.33-1.49,0.63
					c-8.88,5.61-17.77,11.21-26.66,16.8c-0.51,0.32-0.57,0.61-0.39,1.15c1.1,3.29,2.17,6.59,3.24,9.89
					C63.24,85.69,63.6,86.78,63.96,87.88z"/>
			</g>
		</g>
	</g>
</g>
</svg>
