<?xml version="1.0" encoding="utf-8"?>
<!-- Generator: Adobe Illustrator 26.0.2, SVG Export Plug-In . SVG Version: 6.00 Build 0)  -->
<svg version="1.1" xmlns="http://www.w3.org/2000/svg" xmlns:xlink="http://www.w3.org/1999/xlink" x="0px" y="0px"
	 viewBox="0 0 142 142" style="enable-background:new 0 0 142 142;" xml:space="preserve">
<style type="text/css">
	.st0{fill:#D6DBE5;}
	.st1{fill:#314A7E;}
	.st2{fill:#F1F2F2;}
	.st3{fill:#E5DCEB;}
	.st4{fill:#7B519D;}
	.st5{fill:#FAD5D4;}
	.st6{fill:#E52D27;}
	.st7{fill-rule:evenodd;clip-rule:evenodd;fill:#F1F2F2;}
	.st8{fill:#D6F2D7;}
	.st9{fill:#30BF39;}
	.st10{fill:#D9EFFC;}
	.st11{fill:#40B0EF;}
	.st12{fill:#FEFEFE;}
	.st13{fill:#D9DFED;}
	.st14{fill:#4060A5;}
	.st15{fill:#FFFFFF;}
</style>
<g id="background">
</g>
<g id="objects">
	<g>
		<path class="st3" d="M8,71C8,36.21,36.21,8,71,8c34.79,0,63,28.21,63,63s-28.21,63-63,63C36.21,134,8,105.79,8,71z"/>
		<path class="st4" d="M19.13,71c0-28.65,23.22-51.87,51.87-51.87c28.65,0,51.87,23.22,51.87,51.87c0,28.65-23.23,51.88-51.87,51.88
			C42.35,122.87,19.13,99.65,19.13,71z"/>
		<g>
			<g id="g4780_00000045577415665054071060000012650951567816229041_">
				
					<g id="g15_00000019664628530247840740000012242031904735669909_" transform="matrix(1.452588,0,0,1.452588,-115.17955,-97.147891)">
					<path id="path17-6_00000154402720920396603170000007074501135640644764_" class="st2" d="M143.83,124.45
						c-1.15-0.93-2.38-1.76-3.59-2.61c-2.42-1.7-4.63-1.83-6.43,0.9c-1.01,1.53-2.43,1.6-3.91,0.93c-4.09-1.85-7.24-4.71-9.09-8.86
						c-0.82-1.84-0.81-3.48,1.11-4.78c1.01-0.69,2.03-1.5,1.95-3c-0.11-1.96-4.86-8.5-6.74-9.19c-0.78-0.29-1.55-0.27-2.34,0
						c-4.4,1.48-6.22,5.1-4.48,9.39c5.21,12.79,14.37,21.69,26.99,27.12c0.72,0.31,1.52,0.43,1.92,0.54
						c2.87,0.03,6.24-2.74,7.21-5.49C147.38,126.76,145.4,125.71,143.83,124.45L143.83,124.45z"/>
					<path id="path19-1_00000019643512097041056980000009173210830798525313_" class="st2" d="M129.69,98.65
						c9.22,1.42,13.48,5.81,14.65,15.1c0.11,0.86-0.21,2.15,1.01,2.17c1.28,0.02,0.97-1.25,0.98-2.11
						c0.11-8.75-7.52-16.86-16.38-17.16c-0.67,0.1-2.05-0.46-2.14,1.04C127.76,98.7,128.92,98.53,129.69,98.65L129.69,98.65z"/>
					<path id="path21-2_00000119821227691453808920000006016002274687393452_" class="st2" d="M131.49,101.2
						c-0.89-0.11-2.06-0.53-2.27,0.71c-0.22,1.29,1.09,1.16,1.93,1.35c5.7,1.27,7.68,3.35,8.62,9c0.14,0.82-0.13,2.11,1.27,1.89
						c1.04-0.16,0.66-1.26,0.75-1.9C141.83,106.82,137.18,101.88,131.49,101.2L131.49,101.2z"/>
					<path id="path23_00000147195464704428434970000015863815480906299325_" class="st2" d="M132.01,105.63
						c-0.59,0.01-1.17,0.08-1.39,0.71c-0.33,0.95,0.36,1.17,1.06,1.28c2.34,0.38,3.57,1.75,3.8,4.08c0.06,0.63,0.46,1.14,1.08,1.07
						c0.85-0.1,0.92-0.85,0.9-1.57C137.5,108.6,134.54,105.57,132.01,105.63L132.01,105.63z"/>
				</g>
			</g>
		</g>
	</g>
</g>
</svg>
