<?xml version="1.0" encoding="utf-8"?>
<!-- Generator: Adobe Illustrator 26.0.3, SVG Export Plug-In . SVG Version: 6.00 Build 0)  -->
<svg version="1.1" xmlns="http://www.w3.org/2000/svg" xmlns:xlink="http://www.w3.org/1999/xlink" x="0px" y="0px"
	 viewBox="0 0 142 142" style="enable-background:new 0 0 142 142;" xml:space="preserve">
<style type="text/css">
	.st0{fill:#D6DBE5;}
	.st1{fill:#314A7E;}
	.st2{fill:#F1F2F2;}
	.st3{fill:#E5DCEB;}
	.st4{fill:#7B519D;}
	.st5{fill:#FAD5D4;}
	.st6{fill:#E52D27;}
	.st7{fill-rule:evenodd;clip-rule:evenodd;fill:#F1F2F2;}
	.st8{fill:#CCE4FF;}
	.st9{fill:#0077FF;}
	.st10{fill:#DBE3ED;}
	.st11{fill:#4C73A4;}
	.st12{fill:#FFFFFF;}
	.st13{fill:#D6F2D7;}
	.st14{fill:#30BF39;}
	.st15{fill:#D9EFFC;}
	.st16{fill:#40B0EF;}
	.st17{fill:#FEFEFE;}
	.st18{fill:#D9DFED;}
	.st19{fill:#4060A5;}
	.st20{fill-rule:evenodd;clip-rule:evenodd;fill:#FFFFFF;}
</style>
<g id="background">
</g>
<g id="objects">
	<path class="st8" d="M6,71C6,35.1,35.1,6,71,6c35.9,0,65,29.1,65,65s-29.1,65-65,65C35.1,136,6,106.9,6,71z"/>
	<circle class="st9" cx="71" cy="71" r="53.52"/>
	<path class="st20" d="M74.17,95.94c-24.22,0-38.04-16.6-38.61-44.23h12.13c0.4,20.28,9.34,28.87,16.43,30.64V51.7h11.42V69.2
		c7-0.75,14.34-8.72,16.82-17.49h11.42c-1.9,10.8-9.87,18.77-15.54,22.05c5.67,2.66,14.75,9.61,18.2,22.18H93.87
		c-2.7-8.41-9.43-14.92-18.33-15.81v15.81H74.17L74.17,95.94z"/>
</g>
</svg>
