<?xml version="1.0" encoding="utf-8"?>
<!-- Generator: Adobe Illustrator 26.0.2, SVG Export Plug-In . SVG Version: 6.00 Build 0)  -->
<svg version="1.1" xmlns="http://www.w3.org/2000/svg" xmlns:xlink="http://www.w3.org/1999/xlink" x="0px" y="0px"
	 viewBox="0 0 142 142" style="enable-background:new 0 0 142 142;" xml:space="preserve">
<style type="text/css">
	.st0{fill:#D6DBE5;}
	.st1{fill:#314A7E;}
	.st2{fill:#F1F2F2;}
	.st3{fill:#E5DCEB;}
	.st4{fill:#7B519D;}
	.st5{fill:#FAD5D4;}
	.st6{fill:#E52D27;}
	.st7{fill-rule:evenodd;clip-rule:evenodd;fill:#F1F2F2;}
	.st8{fill:#D6F2D7;}
	.st9{fill:#30BF39;}
	.st10{fill:#D9EFFC;}
	.st11{fill:#40B0EF;}
	.st12{fill:#FEFEFE;}
	.st13{fill:#D9DFED;}
	.st14{fill:#4060A5;}
	.st15{fill:#FFFFFF;}
</style>
<g id="background">
</g>
<g id="objects">
	<g>
		<path class="st8" d="M8,71C8,36.21,36.21,8,71,8c34.79,0,63,28.21,63,63s-28.21,63-63,63C36.21,134,8,105.79,8,71z"/>
		<ellipse transform="matrix(0.7071 -0.7071 0.7071 0.7071 -29.4091 71)" class="st9" cx="71" cy="71" rx="51.87" ry="51.87"/>
		<g>
			<path class="st7" d="M84.79,76.68c-0.71-0.39-4.19-2.27-4.85-2.53c-0.65-0.27-1.13-0.4-1.64,0.3c-0.51,0.7-1.95,2.28-2.39,2.74
				c-0.44,0.47-0.86,0.51-1.57,0.12c-0.71-0.39-3.01-1.24-5.67-3.8c-2.08-1.99-3.44-4.41-3.83-5.15c-0.4-0.74,0-1.12,0.37-1.46
				c0.34-0.31,0.75-0.82,1.13-1.23c0.37-0.41,0.51-0.7,0.77-1.18c0.26-0.47,0.15-0.9-0.01-1.27c-0.17-0.37-1.48-3.98-2.02-5.45
				c-0.55-1.47-1.16-1.25-1.58-1.27c-0.42-0.01-0.9-0.09-1.38-0.11c-0.48-0.02-1.27,0.13-1.96,0.83c-0.69,0.7-2.62,2.38-2.76,5.93
				c-0.13,3.55,2.33,7.09,2.67,7.58c0.34,0.5,4.7,8.2,11.93,11.37c7.24,3.17,7.28,2.2,8.6,2.13c1.33-0.07,4.34-1.59,5.01-3.25
				c0.67-1.66,0.72-3.11,0.55-3.42C85.98,77.27,85.5,77.07,84.79,76.68L84.79,76.68z M71.52,93.81c-4.78,0-9.24-1.44-12.96-3.9
				l-9.05,2.9l2.94-8.75c-2.82-3.88-4.49-8.66-4.49-13.81c0-12.99,10.57-23.56,23.56-23.56c12.99,0,23.56,10.57,23.56,23.56
				C95.08,83.24,84.51,93.81,71.52,93.81L71.52,93.81z M71.52,41.95c-15.63,0-28.3,12.67-28.3,28.3c0,5.35,1.48,10.35,4.06,14.61
				l-5.11,15.18l15.67-5.02c4.06,2.24,8.72,3.52,13.68,3.52c15.63,0,28.3-12.67,28.3-28.3C99.82,54.62,87.15,41.95,71.52,41.95
				L71.52,41.95z"/>
		</g>
	</g>
</g>
</svg>
